<svg width="92" height="135" viewBox="0 0 92 135" fill="none" xmlns="http://www.w3.org/2000/svg">
<path d="M9.56538 135L36.9254 35.352H61.1174L88.4774 135H77.5334L70.3334 109.368H27.7094L20.5094 135H9.56538ZM45.2774 44.856L30.1574 99.432H67.8854L52.7654 44.856H45.2774ZM32.8934 15.336L63.9974 0.935992L67.7414 10.44L36.2054 22.968L32.8934 15.336Z" fill="#695000"/>
<path d="M3.56538 135L30.9254 35.352H55.1174L82.4774 135H71.5334L64.3334 109.368H21.7094L14.5094 135H3.56538ZM39.2774 44.856L24.1574 99.432H61.8854L46.7654 44.856H39.2774ZM26.8934 15.336L57.9974 0.935992L61.7414 10.44L30.2054 22.968L26.8934 15.336Z" fill="#FFC100"/>
</svg>
